<svg xmlns="http://www.w3.org/2000/svg" viewBox="0 0 420 280" fill="none"><title>Diffusion from noisy samples to a structured 3D scene</title><circle cx="53.3" cy="194.4" r="2.1" fill="#7393a6" opacity="0.50"/><circle cx="60.0" cy="121.4" r="2.1" fill="#7393a6" opacity="0.50"/><circle cx="47.6" cy="135.8" r="2.1" fill="#7393a6" opacity="0.50"/><circle cx="80.6" cy="124.7" r="2.1" fill="#7393a6" opacity="0.50"/><circle cx="40.5" cy="111.5" r="2.1" fill="#7393a6" opacity="0.50"/><circle cx="46.6" cy="188.4" r="2.1" fill="#7393a6" opacity="0.50"/><circle cx="39.1" cy="171.2" r="2.1" fill="#7393a6" opacity="0.50"/><circle cx="34.0" cy="174.8" r="2.1" fill="#7393a6" opacity="0.50"/><circle cx="47.1" cy="174.1" r="2.1" fill="#7393a6" opacity="0.50"/><circle cx="60.9" cy="94.8" r="2.1" fill="#7393a6" opacity="0.50"/><circle cx="32.8" cy="176.4" r="2.1" fill="#7393a6" opacity="0.50"/><circle cx="70.0" cy="140.9" r="2.1" fill="#7393a6" opacity="0.50"/><circle cx="54.2" cy="164.1" r="2.1" fill="#7393a6" opacity="0.50"/><circle cx="65.0" cy="93.0" r="2.1" fill="#7393a6" opacity="0.50"/><circle cx="74.9" cy="121.4" r="2.1" fill="#7393a6" opacity="0.50"/><circle cx="95.3" cy="148.0" r="2.1" fill="#7393a6" opacity="0.50"/><circle cx="89.2" cy="99.6" r="2.1" fill="#7393a6" opacity="0.50"/><circle cx="83.7" cy="155.0" r="2.1" fill="#7393a6" opacity="0.50"/><circle cx="95.6" cy="185.9" r="2.1" fill="#7393a6" opacity="0.50"/><circle cx="70.8" cy="152.9" r="2.1" fill="#7393a6" opacity="0.50"/><circle cx="88.7" cy="115.8" r="2.1" fill="#7393a6" opacity="0.50"/><circle cx="70.2" cy="174.9" r="2.1" fill="#7393a6" opacity="0.50"/><circle cx="74.3" cy="147.3" r="2.1" fill="#7393a6" opacity="0.50"/><circle cx="96.0" cy="196.2" r="2.1" fill="#7393a6" opacity="0.50"/><circle cx="46.5" cy="94.5" r="2.1" fill="#7393a6" opacity="0.50"/><circle cx="75.9" cy="102.8" r="2.1" fill="#7393a6" opacity="0.50"/><circle cx="105.5" cy="139.6" r="2.1" fill="#7393a6" opacity="0.50"/><circle cx="69.3" cy="178.4" r="2.1" fill="#7393a6" opacity="0.50"/><circle cx="97.2" cy="102.1" r="2.1" fill="#7393a6" opacity="0.50"/><circle cx="62.6" cy="106.4" r="2.1" fill="#7393a6" opacity="0.50"/><circle cx="63.2" cy="101.1" r="2.1" fill="#7393a6" opacity="0.50"/><circle cx="97.8" cy="126.2" r="2.1" fill="#7393a6" opacity="0.50"/><circle cx="57.3" cy="187.4" r="2.1" fill="#7393a6" opacity="0.50"/><circle cx="93.3" cy="124.0" r="2.1" fill="#7393a6" opacity="0.50"/><circle cx="66.5" cy="160.9" r="2.1" fill="#7393a6" opacity="0.50"/><circle cx="40.6" cy="101.4" r="2.1" fill="#7393a6" opacity="0.50"/><circle cx="96.2" cy="104.3" r="2.1" fill="#7393a6" opacity="0.50"/><circle cx="83.7" cy="169.4" r="2.1" fill="#7393a6" opacity="0.50"/><circle cx="74.1" cy="125.1" r="2.1" fill="#7393a6" opacity="0.50"/><circle cx="96.2" cy="174.9" r="2.1" fill="#7393a6" opacity="0.50"/><circle cx="30.9" cy="187.4" r="2.1" fill="#7393a6" opacity="0.50"/><circle cx="77.8" cy="118.7" r="2.1" fill="#7393a6" opacity="0.50"/><circle cx="39.0" cy="97.1" r="2.1" fill="#7393a6" opacity="0.50"/><circle cx="92.3" cy="181.8" r="2.1" fill="#7393a6" opacity="0.50"/><circle cx="53.9" cy="106.3" r="2.1" fill="#7393a6" opacity="0.50"/><circle cx="31.1" cy="132.8" r="2.1" fill="#7393a6" opacity="0.50"/><circle cx="49.7" cy="91.9" r="2.1" fill="#7393a6" opacity="0.50"/><circle cx="49.7" cy="178.8" r="2.1" fill="#7393a6" opacity="0.50"/><circle cx="30.4" cy="131.6" r="2.1" fill="#7393a6" opacity="0.50"/><circle cx="67.7" cy="104.3" r="2.1" fill="#7393a6" opacity="0.50"/><circle cx="28.0" cy="94.4" r="2.1" fill="#7393a6" opacity="0.50"/><circle cx="36.9" cy="196.1" r="2.1" fill="#7393a6" opacity="0.50"/><circle cx="96.5" cy="165.7" r="2.1" fill="#7393a6" opacity="0.50"/><circle cx="99.7" cy="122.8" r="2.1" fill="#7393a6" opacity="0.50"/><circle cx="45.7" cy="184.3" r="2.1" fill="#7393a6" opacity="0.50"/><path d="M120.0 145.0 L146.0 145.0" fill="none" stroke="#448e9e" stroke-width="2" stroke-opacity="0.6" stroke-linecap="round" stroke-linejoin="round"/><path d="M139 140 L146 145 L139 150" fill="none" stroke="#448e9e" stroke-width="2" stroke-opacity="0.7" stroke-linecap="round" stroke-linejoin="round"/><circle cx="207.4" cy="190.4" r="2.2" fill="#8b6bb4" opacity="0.65"/><circle cx="188.3" cy="190.2" r="2.297816470580729" fill="#8b6bb4" opacity="0.71"/><circle cx="200.6" cy="185.6" r="2.0151336940207156" fill="#8b6bb4" opacity="0.54"/><circle cx="212.3" cy="188.6" r="2.372961273819923" fill="#8b6bb4" opacity="0.75"/><circle cx="174.8" cy="184.7" r="2.157279924056493" fill="#8b6bb4" opacity="0.62"/><circle cx="221.7" cy="182.2" r="2.0555832867462502" fill="#8b6bb4" opacity="0.56"/><circle cx="191.5" cy="186.0" r="2.4802815506508944" fill="#8b6bb4" opacity="0.82"/><circle cx="184.7" cy="178.1" r="1.9255168270446479" fill="#8b6bb4" opacity="0.49"/><circle cx="229.7" cy="181.4" r="2.3120448787751138" fill="#8b6bb4" opacity="0.72"/><circle cx="167.3" cy="180.4" r="2.330677314884488" fill="#8b6bb4" opacity="0.73"/><circle cx="214.1" cy="173.6" r="1.8765881758632876" fill="#8b6bb4" opacity="0.46"/><circle cx="210.1" cy="180.5" r="2.553550857438198" fill="#8b6bb4" opacity="0.86"/><circle cx="165.9" cy="172.6" r="2.0079643830551817" fill="#8b6bb4" opacity="0.53"/><circle cx="237.5" cy="172.6" r="2.1152842008937247" fill="#8b6bb4" opacity="0.60"/><circle cx="175.7" cy="176.3" r="2.5315269976859014" fill="#8b6bb4" opacity="0.85"/><circle cx="193.7" cy="166.1" r="1.7882345238642956" fill="#8b6bb4" opacity="0.40"/><circle cx="231.5" cy="173.1" r="2.4735319224966528" fill="#8b6bb4" opacity="0.81"/><circle cx="155.7" cy="168.7" r="2.2178911435580386" fill="#8b6bb4" opacity="0.66"/><circle cx="230.3" cy="163.5" r="1.8889612168298424" fill="#8b6bb4" opacity="0.46"/><circle cx="196.9" cy="171.3" r="2.6478175850562575" fill="#8b6bb4" opacity="0.92"/><circle cx="169.8" cy="160.5" r="1.850602035131625" fill="#8b6bb4" opacity="0.44"/><circle cx="244.7" cy="164.1" r="2.261514184216597" fill="#8b6bb4" opacity="0.69"/><circle cx="160.7" cy="165.3" r="2.466732787823192" fill="#8b6bb4" opacity="0.81"/><circle cx="209.4" cy="155.3" r="1.7392752008005576" fill="#8b6bb4" opacity="0.37"/><circle cx="222.7" cy="164.5" r="2.6138412049287614" fill="#8b6bb4" opacity="0.90"/><circle cx="153.2" cy="156.5" r="2.053737584223775" fill="#8b6bb4" opacity="0.56"/><circle cx="243.0" cy="154.5" r="1.9965670579260102" fill="#8b6bb4" opacity="0.53"/><circle cx="180.1" cy="161.0" r="2.6505225554826763" fill="#8b6bb4" opacity="0.92"/><circle cx="182.4" cy="148.8" r="1.7376929962562586" fill="#8b6bb4" opacity="0.37"/><circle cx="242.7" cy="155.8" r="2.4297253389652402" fill="#8b6bb4" opacity="0.79"/><circle cx="151.1" cy="153.3" r="2.3263873327503384" fill="#8b6bb4" opacity="0.73"/><circle cx="225.9" cy="145.5" r="1.7815446274212352" fill="#8b6bb4" opacity="0.40"/><circle cx="207.4" cy="155.1" r="2.691517049599243" fill="#8b6bb4" opacity="0.94"/><circle cx="159.5" cy="144.3" r="1.8941297759406697" fill="#8b6bb4" opacity="0.47"/><circle cx="248.8" cy="146.1" r="2.1587216697140676" fill="#8b6bb4" opacity="0.63"/><circle cx="165.0" cy="149.8" r="2.566994983473957" fill="#8b6bb4" opacity="0.87"/><circle cx="199.2" cy="138.1" r="1.7004653386831163" fill="#8b6bb4" opacity="0.35"/><circle cx="232.5" cy="147.2" r="2.5693817450406655" fill="#8b6bb4" opacity="0.87"/><circle cx="149.5" cy="140.9" r="2.1540891489412246" fill="#8b6bb4" opacity="0.62"/><circle cx="238.5" cy="136.6" r="1.9002287406268683" fill="#8b6bb4" opacity="0.47"/><circle cx="190.2" cy="144.8" r="2.685814283144272" fill="#8b6bb4" opacity="0.94"/><circle cx="172.8" cy="132.7" r="1.7841799783695909" fill="#8b6bb4" opacity="0.40"/><circle cx="246.1" cy="137.9" r="2.3290862694443515" fill="#8b6bb4" opacity="0.73"/><circle cx="155.8" cy="137.7" r="2.421451744072949" fill="#8b6bb4" opacity="0.78"/><circle cx="215.7" cy="128.4" r="1.7487817622490702" fill="#8b6bb4" opacity="0.38"/><circle cx="217.0" cy="137.8" r="2.64176728640152" fill="#8b6bb4" opacity="0.92"/><circle cx="156.3" cy="128.8" r="1.9977589804518905" fill="#8b6bb4" opacity="0.53"/><circle cx="243.6" cy="128.3" r="2.0624025002413147" fill="#8b6bb4" opacity="0.57"/><circle cx="175.7" cy="133.4" r="2.597996725178325" fill="#8b6bb4" opacity="0.89"/><circle cx="189.4" cy="122.0" r="1.7550694118500028" fill="#8b6bb4" opacity="0.38"/><circle cx="235.5" cy="129.2" r="2.459614239707649" fill="#8b6bb4" opacity="0.81"/><circle cx="155.2" cy="125.4" r="2.254533137196803" fill="#8b6bb4" opacity="0.68"/><circle cx="227.1" cy="119.5" r="1.8702625136599544" fill="#8b6bb4" opacity="0.45"/><circle cx="200.5" cy="127.3" r="2.624162466997833" fill="#8b6bb4" opacity="0.90"/><circle cx="169.9" cy="117.4" r="1.9042628749970385" fill="#8b6bb4" opacity="0.47"/><circle cx="239.5" cy="119.9" r="2.220694121690103" fill="#8b6bb4" opacity="0.66"/><circle cx="168.6" cy="121.4" r="2.451305817211217" fill="#8b6bb4" opacity="0.80"/><circle cx="204.3" cy="112.5" r="1.820680961406697" fill="#8b6bb4" opacity="0.42"/><circle cx="220.0" cy="119.4" r="2.505185189253205" fill="#8b6bb4" opacity="0.83"/><circle cx="164.2" cy="113.5" r="2.1199309877891848" fill="#8b6bb4" opacity="0.60"/><circle cx="228.8" cy="111.2" r="2.0311746846571523" fill="#8b6bb4" opacity="0.55"/><circle cx="188.9" cy="115.7" r="2.5106849794896884" fill="#8b6bb4" opacity="0.84"/><circle cx="186.2" cy="107.3" r="1.918595440052913" fill="#8b6bb4" opacity="0.48"/><circle cx="225.7" cy="110.7" r="2.3133520678681734" fill="#8b6bb4" opacity="0.72"/><circle cx="173.6" cy="109.1" r="2.289830700248991" fill="#8b6bb4" opacity="0.70"/><circle cx="210.5" cy="104.2" r="1.9834565769567014" fill="#8b6bb4" opacity="0.52"/><circle cx="204.5" cy="108.0" r="2.411014717261995" fill="#8b6bb4" opacity="0.78"/><circle cx="183.4" cy="103.0" r="2.098872750008617" fill="#8b6bb4" opacity="0.59"/><circle cx="213.3" cy="102.6" r="2.176169456429136" fill="#8b6bb4" opacity="0.64"/><circle cx="193.8" cy="102.4" r="2.2663284487686033" fill="#8b6bb4" opacity="0.69"/><circle cx="209.3" cy="194.0" r="1.8" fill="#7393a6" opacity="0.35"/><circle cx="190.0" cy="140.4" r="1.8" fill="#7393a6" opacity="0.35"/><circle cx="218.0" cy="189.7" r="1.8" fill="#7393a6" opacity="0.35"/><circle cx="174.9" cy="124.6" r="1.8" fill="#7393a6" opacity="0.35"/><circle cx="163.1" cy="155.8" r="1.8" fill="#7393a6" opacity="0.35"/><circle cx="234.0" cy="156.6" r="1.8" fill="#7393a6" opacity="0.35"/><circle cx="173.6" cy="169.6" r="1.8" fill="#7393a6" opacity="0.35"/><circle cx="212.7" cy="108.0" r="1.8" fill="#7393a6" opacity="0.35"/><circle cx="233.3" cy="166.3" r="1.8" fill="#7393a6" opacity="0.35"/><circle cx="200.3" cy="133.1" r="1.8" fill="#7393a6" opacity="0.35"/><circle cx="174.5" cy="146.1" r="1.8" fill="#7393a6" opacity="0.35"/><circle cx="190.5" cy="121.5" r="1.8" fill="#7393a6" opacity="0.35"/><circle cx="212.4" cy="166.5" r="1.8" fill="#7393a6" opacity="0.35"/><circle cx="236.4" cy="198.7" r="1.8" fill="#7393a6" opacity="0.35"/><circle cx="198.3" cy="172.2" r="1.8" fill="#7393a6" opacity="0.35"/><path d="M256.0 145.0 L283.0 145.0" fill="none" stroke="#448e9e" stroke-width="2" stroke-opacity="0.6" stroke-linecap="round" stroke-linejoin="round"/><path d="M276 140 L283 145 L276 150" fill="none" stroke="#448e9e" stroke-width="2" stroke-opacity="0.7" stroke-linecap="round" stroke-linejoin="round"/><circle cx="298.3" cy="174.1" r="1.8" fill="#448e9e" opacity="0.55"/><circle cx="298.3" cy="164.1" r="1.8" fill="#448e9e" opacity="0.62"/><circle cx="298.3" cy="154.0" r="1.8" fill="#448e9e" opacity="0.68"/><circle cx="298.3" cy="144.0" r="1.8" fill="#448e9e" opacity="0.75"/><circle cx="298.3" cy="133.9" r="1.8" fill="#448e9e" opacity="0.82"/><circle cx="298.3" cy="123.9" r="1.8" fill="#448e9e" opacity="0.88"/><circle cx="298.3" cy="113.8" r="1.8" fill="#448e9e" opacity="0.95"/><circle cx="307.2" cy="177.8" r="1.8" fill="#448e9e" opacity="0.55"/><circle cx="307.2" cy="167.8" r="1.8" fill="#448e9e" opacity="0.62"/><circle cx="307.2" cy="157.7" r="1.8" fill="#448e9e" opacity="0.68"/><circle cx="307.2" cy="147.7" r="1.8" fill="#448e9e" opacity="0.75"/><circle cx="307.2" cy="137.6" r="1.8" fill="#448e9e" opacity="0.82"/><circle cx="307.2" cy="127.6" r="1.8" fill="#448e9e" opacity="0.88"/><circle cx="307.2" cy="117.5" r="1.8" fill="#448e9e" opacity="0.95"/><circle cx="316.0" cy="181.5" r="1.8" fill="#448e9e" opacity="0.55"/><circle cx="316.0" cy="171.4" r="1.8" fill="#448e9e" opacity="0.62"/><circle cx="316.0" cy="161.4" r="1.8" fill="#448e9e" opacity="0.68"/><circle cx="316.0" cy="151.3" r="1.8" fill="#448e9e" opacity="0.75"/><circle cx="316.0" cy="141.3" r="1.8" fill="#448e9e" opacity="0.82"/><circle cx="316.0" cy="131.2" r="1.8" fill="#448e9e" opacity="0.88"/><circle cx="316.0" cy="121.2" r="1.8" fill="#448e9e" opacity="0.95"/><circle cx="324.8" cy="185.1" r="1.8" fill="#448e9e" opacity="0.55"/><circle cx="324.8" cy="175.1" r="1.8" fill="#448e9e" opacity="0.62"/><circle cx="324.8" cy="165.0" r="1.8" fill="#448e9e" opacity="0.68"/><circle cx="324.8" cy="155.0" r="1.8" fill="#448e9e" opacity="0.75"/><circle cx="324.8" cy="144.9" r="1.8" fill="#448e9e" opacity="0.82"/><circle cx="324.8" cy="134.9" r="1.8" fill="#448e9e" opacity="0.88"/><circle cx="324.8" cy="124.8" r="1.8" fill="#448e9e" opacity="0.95"/><circle cx="333.7" cy="188.8" r="1.8" fill="#448e9e" opacity="0.55"/><circle cx="333.7" cy="178.8" r="1.8" fill="#448e9e" opacity="0.62"/><circle cx="333.7" cy="168.7" r="1.8" fill="#448e9e" opacity="0.68"/><circle cx="333.7" cy="158.7" r="1.8" fill="#448e9e" opacity="0.75"/><circle cx="333.7" cy="148.6" r="1.8" fill="#448e9e" opacity="0.82"/><circle cx="333.7" cy="138.6" r="1.8" fill="#448e9e" opacity="0.88"/><circle cx="333.7" cy="128.5" r="1.8" fill="#448e9e" opacity="0.95"/><circle cx="342.5" cy="192.5" r="1.8" fill="#448e9e" opacity="0.55"/><circle cx="342.5" cy="182.4" r="1.8" fill="#448e9e" opacity="0.62"/><circle cx="342.5" cy="172.4" r="1.8" fill="#448e9e" opacity="0.68"/><circle cx="342.5" cy="162.3" r="1.8" fill="#448e9e" opacity="0.75"/><circle cx="342.5" cy="152.3" r="1.8" fill="#448e9e" opacity="0.82"/><circle cx="342.5" cy="142.2" r="1.8" fill="#448e9e" opacity="0.88"/><circle cx="342.5" cy="132.2" r="1.8" fill="#448e9e" opacity="0.95"/><circle cx="351.3" cy="196.1" r="1.8" fill="#448e9e" opacity="0.55"/><circle cx="351.3" cy="186.1" r="1.8" fill="#448e9e" opacity="0.62"/><circle cx="351.3" cy="176.0" r="1.8" fill="#448e9e" opacity="0.68"/><circle cx="351.3" cy="166.0" r="1.8" fill="#448e9e" opacity="0.75"/><circle cx="351.3" cy="155.9" r="1.8" fill="#448e9e" opacity="0.82"/><circle cx="351.3" cy="145.9" r="1.8" fill="#448e9e" opacity="0.88"/><circle cx="351.3" cy="135.8" r="1.8" fill="#448e9e" opacity="0.95"/><circle cx="393.7" cy="178.2" r="1.8" fill="#448e9e" opacity="0.55"/><circle cx="386.6" cy="181.2" r="1.8" fill="#448e9e" opacity="0.62"/><circle cx="379.6" cy="184.2" r="1.8" fill="#448e9e" opacity="0.68"/><circle cx="372.5" cy="187.2" r="1.8" fill="#448e9e" opacity="0.75"/><circle cx="365.4" cy="190.2" r="1.8" fill="#448e9e" opacity="0.82"/><circle cx="358.4" cy="193.2" r="1.8" fill="#448e9e" opacity="0.88"/><circle cx="351.3" cy="196.1" r="1.8" fill="#448e9e" opacity="0.95"/><circle cx="393.7" cy="168.1" r="1.8" fill="#448e9e" opacity="0.55"/><circle cx="386.6" cy="171.1" r="1.8" fill="#448e9e" opacity="0.62"/><circle cx="379.6" cy="174.1" r="1.8" fill="#448e9e" opacity="0.68"/><circle cx="372.5" cy="177.1" r="1.8" fill="#448e9e" opacity="0.75"/><circle cx="365.4" cy="180.1" r="1.8" fill="#448e9e" opacity="0.82"/><circle cx="358.4" cy="183.1" r="1.8" fill="#448e9e" opacity="0.88"/><circle cx="351.3" cy="186.1" r="1.8" fill="#448e9e" opacity="0.95"/><circle cx="393.7" cy="158.1" r="1.8" fill="#448e9e" opacity="0.55"/><circle cx="386.6" cy="161.1" r="1.8" fill="#448e9e" opacity="0.62"/><circle cx="379.6" cy="164.1" r="1.8" fill="#448e9e" opacity="0.68"/><circle cx="372.5" cy="167.1" r="1.8" fill="#448e9e" opacity="0.75"/><circle cx="365.4" cy="170.1" r="1.8" fill="#448e9e" opacity="0.82"/><circle cx="358.4" cy="173.1" r="1.8" fill="#448e9e" opacity="0.88"/><circle cx="351.3" cy="176.0" r="1.8" fill="#448e9e" opacity="0.95"/><circle cx="393.7" cy="148.0" r="1.8" fill="#448e9e" opacity="0.55"/><circle cx="386.6" cy="151.0" r="1.8" fill="#448e9e" opacity="0.62"/><circle cx="379.6" cy="154.0" r="1.8" fill="#448e9e" opacity="0.68"/><circle cx="372.5" cy="157.0" r="1.8" fill="#448e9e" opacity="0.75"/><circle cx="365.4" cy="160.0" r="1.8" fill="#448e9e" opacity="0.82"/><circle cx="358.4" cy="163.0" r="1.8" fill="#448e9e" opacity="0.88"/><circle cx="351.3" cy="166.0" r="1.8" fill="#448e9e" opacity="0.95"/><circle cx="393.7" cy="138.0" r="1.8" fill="#448e9e" opacity="0.55"/><circle cx="386.6" cy="141.0" r="1.8" fill="#448e9e" opacity="0.62"/><circle cx="379.6" cy="144.0" r="1.8" fill="#448e9e" opacity="0.68"/><circle cx="372.5" cy="147.0" r="1.8" fill="#448e9e" opacity="0.75"/><circle cx="365.4" cy="150.0" r="1.8" fill="#448e9e" opacity="0.82"/><circle cx="358.4" cy="153.0" r="1.8" fill="#448e9e" opacity="0.88"/><circle cx="351.3" cy="155.9" r="1.8" fill="#448e9e" opacity="0.95"/><circle cx="393.7" cy="127.9" r="1.8" fill="#448e9e" opacity="0.55"/><circle cx="386.6" cy="130.9" r="1.8" fill="#448e9e" opacity="0.62"/><circle cx="379.6" cy="133.9" r="1.8" fill="#448e9e" opacity="0.68"/><circle cx="372.5" cy="136.9" r="1.8" fill="#448e9e" opacity="0.75"/><circle cx="365.4" cy="139.9" r="1.8" fill="#448e9e" opacity="0.82"/><circle cx="358.4" cy="142.9" r="1.8" fill="#448e9e" opacity="0.88"/><circle cx="351.3" cy="145.9" r="1.8" fill="#448e9e" opacity="0.95"/><circle cx="393.7" cy="117.9" r="1.8" fill="#448e9e" opacity="0.55"/><circle cx="386.6" cy="120.9" r="1.8" fill="#448e9e" opacity="0.62"/><circle cx="379.6" cy="123.9" r="1.8" fill="#448e9e" opacity="0.68"/><circle cx="372.5" cy="126.9" r="1.8" fill="#448e9e" opacity="0.75"/><circle cx="365.4" cy="129.9" r="1.8" fill="#448e9e" opacity="0.82"/><circle cx="358.4" cy="132.9" r="1.8" fill="#448e9e" opacity="0.88"/><circle cx="351.3" cy="135.8" r="1.8" fill="#448e9e" opacity="0.95"/><circle cx="340.7" cy="95.9" r="1.8" fill="#448e9e" opacity="0.55"/><circle cx="333.6" cy="98.8" r="1.8" fill="#448e9e" opacity="0.62"/><circle cx="326.6" cy="101.8" r="1.8" fill="#448e9e" opacity="0.68"/><circle cx="319.5" cy="104.8" r="1.8" fill="#448e9e" opacity="0.75"/><circle cx="312.4" cy="107.8" r="1.8" fill="#448e9e" opacity="0.82"/><circle cx="305.4" cy="110.8" r="1.8" fill="#448e9e" opacity="0.88"/><circle cx="298.3" cy="113.8" r="1.8" fill="#448e9e" opacity="0.95"/><circle cx="349.5" cy="99.5" r="1.8" fill="#448e9e" opacity="0.55"/><circle cx="342.5" cy="102.5" r="1.8" fill="#448e9e" opacity="0.62"/><circle cx="335.4" cy="105.5" r="1.8" fill="#448e9e" opacity="0.68"/><circle cx="328.3" cy="108.5" r="1.8" fill="#448e9e" opacity="0.75"/><circle cx="321.3" cy="111.5" r="1.8" fill="#448e9e" opacity="0.82"/><circle cx="314.2" cy="114.5" r="1.8" fill="#448e9e" opacity="0.88"/><circle cx="307.2" cy="117.5" r="1.8" fill="#448e9e" opacity="0.95"/><circle cx="358.3" cy="103.2" r="1.8" fill="#448e9e" opacity="0.55"/><circle cx="351.3" cy="106.2" r="1.8" fill="#448e9e" opacity="0.62"/><circle cx="344.2" cy="109.2" r="1.8" fill="#448e9e" opacity="0.68"/><circle cx="337.2" cy="112.2" r="1.8" fill="#448e9e" opacity="0.75"/><circle cx="330.1" cy="115.2" r="1.8" fill="#448e9e" opacity="0.82"/><circle cx="323.1" cy="118.2" r="1.8" fill="#448e9e" opacity="0.88"/><circle cx="316.0" cy="121.2" r="1.8" fill="#448e9e" opacity="0.95"/><circle cx="367.2" cy="106.9" r="1.8" fill="#448e9e" opacity="0.55"/><circle cx="360.1" cy="109.9" r="1.8" fill="#448e9e" opacity="0.62"/><circle cx="353.1" cy="112.9" r="1.8" fill="#448e9e" opacity="0.68"/><circle cx="346.0" cy="115.8" r="1.8" fill="#448e9e" opacity="0.75"/><circle cx="338.9" cy="118.8" r="1.8" fill="#448e9e" opacity="0.82"/><circle cx="331.9" cy="121.8" r="1.8" fill="#448e9e" opacity="0.88"/><circle cx="324.8" cy="124.8" r="1.8" fill="#448e9e" opacity="0.95"/><circle cx="376.0" cy="110.5" r="1.8" fill="#448e9e" opacity="0.55"/><circle cx="368.9" cy="113.5" r="1.8" fill="#448e9e" opacity="0.62"/><circle cx="361.9" cy="116.5" r="1.8" fill="#448e9e" opacity="0.68"/><circle cx="354.8" cy="119.5" r="1.8" fill="#448e9e" opacity="0.75"/><circle cx="347.8" cy="122.5" r="1.8" fill="#448e9e" opacity="0.82"/><circle cx="340.7" cy="125.5" r="1.8" fill="#448e9e" opacity="0.88"/><circle cx="333.7" cy="128.5" r="1.8" fill="#448e9e" opacity="0.95"/><circle cx="384.8" cy="114.2" r="1.8" fill="#448e9e" opacity="0.55"/><circle cx="377.8" cy="117.2" r="1.8" fill="#448e9e" opacity="0.62"/><circle cx="370.7" cy="120.2" r="1.8" fill="#448e9e" opacity="0.68"/><circle cx="363.7" cy="123.2" r="1.8" fill="#448e9e" opacity="0.75"/><circle cx="356.6" cy="126.2" r="1.8" fill="#448e9e" opacity="0.82"/><circle cx="349.5" cy="129.2" r="1.8" fill="#448e9e" opacity="0.88"/><circle cx="342.5" cy="132.2" r="1.8" fill="#448e9e" opacity="0.95"/><circle cx="393.7" cy="117.9" r="1.8" fill="#448e9e" opacity="0.55"/><circle cx="386.6" cy="120.9" r="1.8" fill="#448e9e" opacity="0.62"/><circle cx="379.6" cy="123.9" r="1.8" fill="#448e9e" opacity="0.68"/><circle cx="372.5" cy="126.9" r="1.8" fill="#448e9e" opacity="0.75"/><circle cx="365.4" cy="129.9" r="1.8" fill="#448e9e" opacity="0.82"/><circle cx="358.4" cy="132.9" r="1.8" fill="#448e9e" opacity="0.88"/><circle cx="351.3" cy="135.8" r="1.8" fill="#448e9e" opacity="0.95"/><path d="M288.0 215.0 L346.0 239.0" fill="none" stroke="#7393a6" stroke-width="1.5" stroke-opacity="0.15" stroke-linecap="round" stroke-linejoin="round"/><path d="M302.5 209.0 L360.5 233.0" fill="none" stroke="#7393a6" stroke-width="1.5" stroke-opacity="0.15" stroke-linecap="round" stroke-linejoin="round"/><path d="M317.0 203.0 L375.0 227.0" fill="none" stroke="#7393a6" stroke-width="1.5" stroke-opacity="0.15" stroke-linecap="round" stroke-linejoin="round"/><path d="M331.5 197.0 L389.5 221.0" fill="none" stroke="#7393a6" stroke-width="1.5" stroke-opacity="0.15" stroke-linecap="round" stroke-linejoin="round"/><path d="M346.0 191.0 L404.0 215.0" fill="none" stroke="#7393a6" stroke-width="1.5" stroke-opacity="0.15" stroke-linecap="round" stroke-linejoin="round"/><path d="M346.0 191.0 L288.0 215.0" fill="none" stroke="#7393a6" stroke-width="1.5" stroke-opacity="0.15" stroke-linecap="round" stroke-linejoin="round"/><path d="M360.5 197.0 L302.5 221.0" fill="none" stroke="#7393a6" stroke-width="1.5" stroke-opacity="0.15" stroke-linecap="round" stroke-linejoin="round"/><path d="M375.0 203.0 L317.0 227.0" fill="none" stroke="#7393a6" stroke-width="1.5" stroke-opacity="0.15" stroke-linecap="round" stroke-linejoin="round"/><path d="M389.5 209.0 L331.5 233.0" fill="none" stroke="#7393a6" stroke-width="1.5" stroke-opacity="0.15" stroke-linecap="round" stroke-linejoin="round"/><path d="M404.0 215.0 L346.0 239.0" fill="none" stroke="#7393a6" stroke-width="1.5" stroke-opacity="0.15" stroke-linecap="round" stroke-linejoin="round"/><path d="M49 228 H83 M181 228 H215 M331 228 H365" fill="none" stroke="#7393a6" stroke-width="2" stroke-opacity="0.4" stroke-linecap="round" stroke-linejoin="round"/></svg>
